<svg xmlns="http://www.w3.org/2000/svg" width="2048" height="2048" viewBox="0 0 2048 2048">
  <path d="M 1022.00 751.50 L 1000.00 740.50 L 966.00 715.50 L 937.50 687.00 L 925.50 671.00 L 908.50 641.00 L 898.50 613.00 L 894.50 591.00 L 894.50 557.00 L 902.50 523.00 L 912.50 502.00 L 921.50 488.00 L 946.50 458.00 L 991.50 414.00 L 1006.50 397.00 L 1027.50 368.00 L 1038.50 347.00 L 1046.50 318.00 L 1047.50 293.00 L 1044.50 270.00 L 1040.50 255.00 L 1028.50 231.00 L 1030.00 228.50 L 1033.00 228.50 L 1048.00 236.50 L 1068.00 251.50 L 1086.50 270.00 L 1098.50 286.00 L 1108.50 305.00 L 1114.50 321.00 L 1118.50 340.00 L 1119.50 371.00 L 1114.50 401.00 L 1106.50 423.00 L 1096.50 442.00 L 1076.50 470.00 L 1035.50 514.00 L 1011.50 544.00 L 999.50 563.00 L 990.50 581.00 L 982.50 605.00 L 979.50 624.00 L 979.50 648.00 L 984.50 676.00 L 992.50 699.00 L 1006.50 726.00 L 1023.50 748.00 L 1022.00 751.50 Z M 1071.00 720.50 L 1069.00 720.50 L 1055.50 705.00 L 1044.50 680.00 L 1041.50 659.00 L 1044.50 634.00 L 1054.50 611.00 L 1062.50 599.00 L 1074.50 585.00 L 1114.50 546.00 L 1130.50 527.00 L 1138.50 515.00 L 1146.50 497.00 L 1148.50 489.00 L 1148.50 472.00 L 1151.00 469.50 L 1159.50 478.00 L 1165.50 488.00 L 1174.50 511.00 L 1176.50 520.00 L 1176.50 547.00 L 1172.50 563.00 L 1166.50 576.00 L 1155.50 593.00 L 1142.50 608.00 L 1099.50 651.00 L 1084.50 671.00 L 1076.50 686.00 L 1072.50 698.00 L 1072.50 719.00 L 1071.00 720.50 Z M 949.00 1668.50 L 942.00 1668.50 L 938.00 1666.50 L 934.50 1663.00 L 932.50 1658.00 L 932.50 1502.00 L 926.50 1488.00 L 919.00 1480.50 L 912.00 1476.50 L 885.00 1470.50 L 882.00 1468.50 L 878.00 1468.50 L 875.00 1466.50 L 859.00 1462.50 L 809.00 1442.50 L 785.00 1430.50 L 751.00 1410.50 L 710.00 1381.50 L 675.00 1351.50 L 653.50 1330.00 L 631.50 1305.00 L 596.50 1255.00 L 571.50 1207.00 L 550.50 1151.00 L 534.50 1091.00 L 520.50 1012.00 L 514.50 957.00 L 510.50 878.00 L 510.50 787.00 L 514.50 762.00 L 520.50 749.00 L 530.50 735.00 L 554.00 713.50 L 582.00 695.50 L 603.00 685.50 L 634.00 674.50 L 679.00 662.50 L 738.00 650.50 L 816.00 640.50 L 857.00 639.50 L 862.50 644.00 L 886.50 681.00 L 888.50 685.00 L 887.00 688.50 L 876.00 690.50 L 815.00 694.50 L 756.00 702.50 L 691.00 716.50 L 644.00 732.50 L 622.00 743.50 L 609.00 752.50 L 598.50 763.00 L 592.50 774.00 L 592.50 789.00 L 600.50 803.00 L 608.00 810.50 L 622.00 820.50 L 649.00 834.50 L 692.00 850.50 L 774.00 870.50 L 780.00 870.50 L 809.00 876.50 L 817.00 876.50 L 822.00 878.50 L 830.00 878.50 L 836.00 880.50 L 891.00 886.50 L 952.00 890.50 L 1056.00 890.50 L 1114.00 886.50 L 1167.00 880.50 L 1256.00 864.50 L 1288.00 856.50 L 1305.00 850.50 L 1309.00 850.50 L 1343.00 838.50 L 1375.00 823.50 L 1393.00 811.50 L 1401.50 804.00 L 1408.50 795.00 L 1412.50 783.00 L 1408.50 767.00 L 1397.00 753.50 L 1378.00 740.50 L 1337.00 722.50 L 1296.00 710.50 L 1251.00 700.50 L 1142.00 684.50 L 1140.50 680.00 L 1157.50 647.00 L 1162.00 641.50 L 1186.00 640.50 L 1208.00 642.50 L 1267.00 650.50 L 1340.00 666.50 L 1396.00 684.50 L 1421.00 695.50 L 1441.00 706.50 L 1457.00 717.50 L 1470.50 730.00 L 1476.50 737.00 L 1486.50 754.00 L 1492.50 774.00 L 1494.50 804.00 L 1493.50 825.00 L 1497.00 828.50 L 1522.00 816.50 L 1544.00 810.50 L 1569.00 807.50 L 1599.00 808.50 L 1620.00 812.50 L 1649.00 822.50 L 1673.00 835.50 L 1697.00 854.50 L 1717.50 880.00 L 1728.50 901.00 L 1734.50 917.00 L 1740.50 942.00 L 1742.50 958.00 L 1742.50 995.00 L 1740.50 1012.00 L 1734.50 1040.00 L 1720.50 1079.00 L 1704.50 1109.00 L 1694.50 1124.00 L 1665.50 1159.00 L 1638.00 1184.50 L 1613.00 1203.50 L 1585.00 1221.50 L 1553.00 1238.50 L 1525.00 1250.50 L 1491.00 1262.50 L 1451.00 1272.50 L 1426.00 1276.50 L 1393.00 1285.50 L 1361.50 1327.00 L 1322.00 1366.50 L 1291.00 1391.50 L 1255.00 1415.50 L 1225.00 1432.50 L 1181.00 1454.50 L 979.00 1643.50 L 955.00 1665.50 L 949.00 1668.50 Z M 1021.00 857.50 L 939.00 856.50 L 870.00 850.50 L 774.00 834.50 L 748.00 828.50 L 744.50 826.00 L 744.50 824.00 L 768.00 805.50 L 793.00 792.50 L 823.00 782.50 L 853.00 776.50 L 875.00 774.50 L 913.00 774.50 L 923.00 776.50 L 935.00 776.50 L 941.00 778.50 L 961.00 780.50 L 1026.00 794.50 L 1090.00 802.50 L 1141.00 802.50 L 1178.00 798.50 L 1223.00 788.50 L 1254.00 776.50 L 1255.50 780.00 L 1248.50 792.00 L 1233.00 807.50 L 1214.00 820.50 L 1185.00 834.50 L 1166.00 840.50 L 1162.00 840.50 L 1159.00 842.50 L 1116.00 850.50 L 1080.00 854.50 L 1021.00 857.50 Z M 1448.50 1180.00 L 1474.00 1174.50 L 1505.00 1164.50 L 1532.00 1152.50 L 1561.00 1136.50 L 1591.00 1114.50 L 1614.50 1091.00 L 1631.50 1068.00 L 1644.50 1044.00 L 1652.50 1022.00 L 1656.50 1003.00 L 1657.50 976.00 L 1656.50 965.00 L 1652.50 949.00 L 1644.50 932.00 L 1635.50 920.00 L 1617.00 904.50 L 1607.00 899.50 L 1591.00 894.50 L 1556.00 894.50 L 1542.00 898.50 L 1525.00 906.50 L 1512.00 915.50 L 1494.50 935.00 L 1490.50 947.00 L 1490.50 957.00 L 1488.50 963.00 L 1488.50 972.00 L 1482.50 1007.00 L 1482.50 1015.00 L 1468.50 1094.00 L 1456.50 1141.00 L 1444.50 1175.00 L 1445.50 1179.00 L 1448.50 1180.00 Z" fill="#5e2c0e" fill-rule="evenodd"/>
</svg>
